# xmcd
#
# Track frame offsets: 
#        150
#        15489
#        33865
#        49555
#
# Disc length: 832 seconds
#
# Revision: 0
# Processed by: cddbd v1.4b42PL1 Copyright (c) Steve Scherf et al.
# Submitted via: ExactAudioCopy v0.90a11
#
DISCID=20033e04
DTITLE=Paula koivuniemi - Promo single
DYEAR=1900
DGENRE=
TTITLE0=Tummat silmät, ruskea tukka
TTITLE1=Aikuinen nainen
TTITLE2=Kun kuuntelen tomppaa (remix)
TTITLE3=No more goodbyes
EXTD=
EXTT0=
EXTT1=
EXTT2=
EXTT3=
PLAYORDER=
